<svg version="1.1" id="Layer_1" xmlns="http://www.w3.org/2000/svg" xmlns:xlink="http://www.w3.org/1999/xlink" x="0px" y="0px"
	 viewBox="0 0 512.002 512.002" style="enable-background:new 0 0 512.002 512.002;" xml:space="preserve">
<g>
	<g>
		<path d="M463.971,17.674L421.304,0.607c-2.253-0.896-4.787-0.802-6.989,0.29l-85.333,42.667c-1.135,0.572-2.133,1.391-2.918,2.398
			l-58.53,75.247c-3.772-1.024-7.603-1.741-11.529-1.741c-3.934,0-7.765,0.717-11.537,1.741l-58.53-75.247
			c-0.785-1.007-1.784-1.826-2.918-2.398L97.686,0.898c-2.185-1.092-4.719-1.186-6.989-0.29L48.031,17.674
			c-4.378,1.749-6.502,6.716-4.753,11.093c1.749,4.378,6.699,6.494,11.093,4.753l39.108-15.642l80.179,40.09l54.997,70.707
			c-14.182,9.771-26.564,27.008-36.233,49.587l-33.681-6.741l-32.171-48.256c-1.254-1.886-3.209-3.191-5.427-3.635l-39.202-7.842
			L66.838,89.132c-2.62-3.925-7.927-5.001-11.836-2.364c-3.925,2.611-4.983,7.91-2.372,11.827l17.067,25.6
			c1.254,1.886,3.209,3.191,5.427,3.635l39.202,7.842l32.171,48.256c1.254,1.886,3.209,3.191,5.427,3.635l34.321,6.861
			c-4.634,13.815-8.346,29.107-10.974,45.559c-0.154,0.077-0.316,0.077-0.461,0.162l-42.667,25.6
			c-1.391,0.836-2.517,2.048-3.243,3.499L69.168,388.712c-2.108,4.215-0.401,9.344,3.814,11.452
			c1.229,0.614,2.534,0.905,3.814,0.905c3.132,0,6.144-1.732,7.637-4.719l58.624-117.248l29.389-17.638
			c-1.161,11.972-1.775,24.405-1.775,37.205c0,7.398,0.256,14.635,0.657,21.777l-32.922,41.156
			c-1.877,2.347-2.389,5.513-1.331,8.328l24.294,64.777l-32.469,64.939c-2.108,4.215-0.401,9.344,3.814,11.452
			c1.229,0.614,2.534,0.905,3.814,0.905c3.132,0,6.144-1.732,7.637-4.719l34.133-68.267c1.058-2.125,1.195-4.591,0.358-6.81
			l-23.902-63.727l18.782-23.484c9.515,77.286,42.283,132.873,82.466,132.873c40.175,0,72.951-55.586,82.458-132.873l18.782,23.484
			l-23.902,63.727c-0.836,2.219-0.7,4.685,0.358,6.81l34.133,68.267c1.493,2.987,4.506,4.719,7.637,4.719
			c1.28,0,2.586-0.29,3.814-0.905c4.215-2.108,5.922-7.236,3.814-11.452l-32.469-64.939l24.294-64.777
			c1.058-2.816,0.546-5.982-1.331-8.328l-32.922-41.156c0.401-7.142,0.666-14.379,0.666-21.777c0-12.8-0.623-25.233-1.783-37.205
			l29.389,17.638l58.624,117.248c1.493,2.987,4.506,4.719,7.637,4.719c1.28,0,2.586-0.29,3.814-0.905
			c4.215-2.108,5.922-7.236,3.814-11.452l-59.733-119.467c-0.725-1.451-1.852-2.662-3.243-3.499l-42.667-25.6
			c-0.145-0.085-0.307-0.085-0.461-0.162c-2.628-16.452-6.332-31.744-10.974-45.559l34.321-6.861
			c2.219-0.444,4.173-1.749,5.427-3.635l32.171-48.256l39.202-7.842c2.219-0.444,4.173-1.749,5.427-3.635l17.067-25.6
			c2.611-3.917,1.553-9.216-2.372-11.827c-3.925-2.637-9.216-1.562-11.836,2.364l-15.104,22.656l-39.202,7.842
			c-2.219,0.444-4.173,1.749-5.427,3.635l-32.171,48.256l-33.681,6.741c-9.668-22.579-22.05-39.817-36.233-49.587l54.997-70.707
			l80.179-40.09l39.108,15.642c4.395,1.741,9.344-0.375,11.093-4.753C470.473,24.39,468.349,19.424,463.971,17.674z
			 M311.497,392.091c-15.71,5.734-35.157,8.977-55.492,8.977c-20.343,0-39.791-3.243-55.501-8.977
			c-4.215-13.722-7.526-29.278-9.745-46.276c16.495-8.183,40.32-13.013,65.246-13.013c24.917,0,48.742,4.83,65.237,13.013
			C319.024,362.813,315.713,378.37,311.497,392.091z M311.497,205.237c4.215,13.73,7.526,29.286,9.745,46.285
			c-16.495,8.175-40.32,13.013-65.237,13.013c-24.926,0-48.759-4.838-65.246-13.013c2.219-16.998,5.53-32.555,9.745-46.285
			c15.727-5.726,35.166-8.969,55.501-8.969C276.34,196.268,295.788,199.511,311.497,205.237z"/>
	</g>
</g>
<g>
</g>
<g>
</g>
<g>
</g>
<g>
</g>
<g>
</g>
<g>
</g>
<g>
</g>
<g>
</g>
<g>
</g>
<g>
</g>
<g>
</g>
<g>
</g>
<g>
</g>
<g>
</g>
<g>
</g>
</svg>
